PathFileType	4	(X/Y/Z)	Patient5_TMGait_0pt45_1_left_12.trc.trc
DataRate	CameraRate	NumFrames	NumMarkers	Units	OrigDataRate	OrigDataStartFrame	OrigNumFrames
62.500000000000	62.500000000000	4	32	mm	62.500000000000	18	       141
Frame#	Time	R.ASIS			L.ASIS			Chest			R.Shoulder			Neck			L.Shoulder			L.Elbow			L.Wrist			R.Elbow			R.Wrist			L.Thigh.Superior			L.Thigh.Lateral			L.Thigh.Inferior			L.Patella			L.Shank.Superior			L.Shank.Lateral			L.Shank.Inferior			L.Heel			L.Midfoot.Lateral			L.Midfoot.Superior			L.Toe			R.Thigh.Superior			R.Thigh.Lateral			R.Thigh.Inferior			R.Patella			R.Shank.Superior			R.Shank.Lateral			R.Shank.Inferior			R.Heel			R.Midfoot.Lateral			R.Midfoot.Superior			R.Toe			
		X1	Y1	Z1	X2	Y2	Z2	X3	Y3	Z3	X4	Y4	Z4	X5	Y5	Z5	X6	Y6	Z6	X7	Y7	Z7	X8	Y8	Z8	X9	Y9	Z9	X10	Y10	Z10	X11	Y11	Z11	X12	Y12	Z12	X13	Y13	Z13	X14	Y14	Z14	X15	Y15	Z15	X16	Y16	Z16	X17	Y17	Z17	X18	Y18	Z18	X19	Y19	Z19	X20	Y20	Z20	X21	Y21	Z21	X22	Y22	Z22	X23	Y23	Z23	X24	Y24	Z24	X25	Y25	Z25	X26	Y26	Z26	X27	Y27	Z27	X28	Y28	Z28	X29	Y29	Z29	X30	Y30	Z30	X31	Y31	Z31	X32	Y32	Z32	

18	18.882000000000	1004.180325082018	958.208728854840	588.315219295677	970.925954593203	957.701792253319	351.088290586265	1093.450790804604	1415.905427561406	472.843106045571	1028.478948959229	1477.610317876789	654.738188776375	971.863977782931	1546.087078532165	480.072263768845	1002.141843738517	1494.357975578839	290.784317589940	865.311958071724	1193.854714983854	173.768207221317	945.573904245463	914.177131221951	169.493299738229	982.703925646123	1166.159420101719	819.223701943112	1190.193979778901	988.577108187283	721.002425356772	1052.138535553227	791.858203156604	328.546464358579	1021.070347714545	703.291944083496	278.166070004304	1116.823964333606	681.454750603544	337.251574267629	1172.373516234151	552.772053032349	323.687881185809	1124.174701437255	440.788625782092	347.153128128952	1043.857710422329	378.432492689892	277.105626119860	1083.980798647313	320.946376959345	358.221708838928	938.577096372920	95.361133975657	368.435002468703	1018.281791918732	71.689828405470	296.910822247613	1122.436636209782	128.127888165626	328.121811973823	1224.367824474003	84.133056962792	317.591237733325	979.187900955015	722.691905386676	599.696091310561	880.973407353695	658.593235120780	654.260316319623	944.157390650721	596.366497502741	572.475654465801	929.540867722059	503.123135177839	596.437568566481	877.038741386782	416.151833173423	558.107205344101	806.721212277456	350.716777029981	639.706396889998	852.155396043564	279.476546488859	552.785557058722	716.241393064235	54.218068996526	513.212125755131	794.441289177551	25.356116470811	586.436400271681	900.705494560333	86.950510362402	562.159583318265	1004.164925986765	43.974647723632	563.159097364378	
19	18.898000000000	1005.629215749710	957.293595103376	589.015465397091	975.362086558768	955.790289958866	351.133671698845	1097.512324380400	1414.127079975461	471.965775920909	1031.795530181439	1476.979787159943	652.834997554010	976.029890410256	1544.589063300099	477.842503252578	1007.887171452406	1491.853322579835	288.853765582586	872.258659439247	1190.767448913652	172.071671571402	951.495514995901	910.784808255564	169.254527909835	986.756374064036	1165.838354528508	818.019144174344	1193.831165480561	987.834473084918	719.787658052124	1053.399235600201	787.309471996249	328.122326960153	1021.187967758434	698.745860396925	278.431100443494	1116.606948007650	676.479587012560	338.034109087412	1172.603717668876	552.309314296202	325.494733672048	1132.591389763204	439.659361229975	349.165864125951	1057.370911394057	370.877591917662	279.199863034687	1103.643860557299	316.474716833154	359.788400821119	978.662379660762	79.377627648300	370.137796648955	1059.625993797738	61.462594530344	298.344295316793	1159.236716775160	126.042623267794	328.709445653267	1264.283248403380	90.168151889428	317.824568385362	978.258647163012	721.465744263410	599.816896185004	878.843033137212	658.369306899179	653.705457162284	941.713316862727	595.338989136295	572.554377834437	926.173933589370	502.176834231375	596.415386871683	872.892974320044	415.764979870676	557.842299593183	801.360567111035	351.133375619769	639.105692899664	846.795304503850	279.334714171579	552.813867534205	709.021322501675	54.238458118231	513.174866935112	787.185215854506	25.376326323590	586.393714341333	893.453463489377	86.910164720752	562.233690029404	996.838072445085	43.956327735479	563.195719332117	
20	18.914000000000	1007.574804658710	956.447767507524	589.657175624472	980.768849525278	953.617658508000	351.126139703441	1101.440869597009	1412.500286319010	470.904707647009	1034.567570772851	1476.305922198434	650.636325474669	979.960284831946	1543.031151837113	475.291023043938	1013.626703806293	1489.466266941240	286.678465874644	879.773238137386	1187.660370563666	169.865839100535	958.099343562513	907.395080889450	168.937318705552	990.298858001791	1165.386868389925	816.483392918500	1197.156808940886	987.026559540413	718.451121320341	1055.208965901332	781.534485626006	327.334968697692	1021.018762121625	692.970079078048	278.958022468838	1116.221823197334	669.995381169522	338.882422181926	1171.794531891071	550.282751422901	328.095731686749	1139.263112855460	437.527423475646	351.875076619223	1069.177628035240	363.335476661955	281.838863241366	1120.785737713190	312.046308290870	361.998143875944	1014.882595236713	66.284270782397	371.819122131470	1096.915512138836	53.194932530103	300.108127048984	1192.009208937545	124.624639688889	330.224203358774	1299.440989676705	96.021360759611	319.416696310171	977.648501338626	720.197424812474	599.741293142347	876.981070248536	658.178859722150	652.980064080130	939.500061201526	594.299325173057	572.523948164971	922.998881930538	501.193245420530	596.275224203248	868.881409678435	415.355850681636	557.454968601915	796.057499827983	351.651462671356	638.358319095697	841.521227682026	279.188689844210	552.757976028118	701.788150328503	54.263022690713	513.124001228627	779.940520564133	25.378842572606	586.329394628610	886.201143704434	86.910495827769	562.351488985311	989.523388741188	43.942504491535	563.205781727032	
21	18.930000000000	1009.964671593140	955.671143517901	590.165160994762	987.111883537863	951.269398231371	351.057935783650	1105.241117380696	1411.080274917970	469.684717087053	1036.757384108099	1475.622685452595	648.162800286513	983.636151725450	1541.455076789095	472.412317755173	1019.343263618404	1487.226340616290	284.266953181734	887.709083948029	1184.602835682988	167.172254265560	965.399551522311	904.141969120641	168.518728500971	993.228478452931	1164.831993583920	814.636743102800	1200.160352784587	986.269677475978	717.050733204709	1057.865511278859	775.008934492182	326.390807529209	1021.088991804903	686.426201528037	279.846877988561	1116.104769981851	662.568709419452	340.059087236329	1170.478943653751	546.991298216633	331.731558973156	1144.333402098329	434.494908548152	355.397603190827	1079.172732281603	356.095007587795	285.013010807488	1134.900321423688	307.638586139865	364.918387090111	1045.424103373245	56.303447926244	373.434202677108	1128.442713894233	46.732041823275	302.215339885677	1219.529560513531	123.276555056234	332.840348455692	1328.652153591949	100.477168010731	322.623804492952	977.608196977615	718.934979038952	599.512921785814	875.652330214912	658.017290044225	652.096136199029	937.916864539403	593.258884738412	572.448940507463	920.358603833253	500.159116377256	596.077875555278	865.337842287599	414.863566057030	556.982097026217	791.082530834851	352.264511040984	637.471312474148	836.534975064559	279.002026502206	552.614861326183	694.571696033230	54.355912133020	513.056031798895	772.723829196188	25.386443151549	586.239939549544	878.982231552173	86.953867321570	562.512663076721	982.243020568925	43.921383996724	563.195585775190	
